<svg version="1.1" id="Layer_1" xmlns="http://www.w3.org/2000/svg" x="0" y="0" viewBox="0 0 352.5 326.2" style="enable-background:new 0 0 352.5 326.2" xml:space="preserve"><style>.st0{fill:#fff}.st1{fill:#484848}.st2{fill:#111}.st5{fill:#00b861}</style><path class="st0" d="M110.5 277.3h-6.3c-.9 0-1.7.8-1.7 1.7v2.3c0 .9.8 1.7 1.7 1.7h2v1.7c-.4.1-.9.1-1.4.1-1.1 0-1.9-.2-2.5-.6-.6-.4-1-.9-1.3-1.6-.3-.8-.5-1.8-.5-2.8 0-1.6.4-2.9 1.2-3.8.8-.8 1.9-1.3 3.3-1.3.7 0 1.3.1 1.9.2.7.2 1.3.4 1.8.6.9.4 1.8 0 2.2-.9l1-2.2c.4-.9 0-1.8-.9-2.2-.8-.4-1.8-.7-2.8-.9-1-.2-2-.3-3.1-.3-2.2 0-4.1.4-5.7 1.3-1.6.9-2.9 2.2-3.8 3.8-.8 1.6-1.3 3.4-1.3 5.5 0 3.2.9 5.8 2.6 7.7 1.7 1.9 4.2 2.9 7.4 2.9 1.3 0 2.5-.1 3.6-.3 1.1-.2 2.1-.4 3.1-.8.7-.2 1.2-.9 1.2-1.6V279c0-.9-.7-1.7-1.7-1.7zM144.3 269.3h-2.6c-.9 0-1.7.8-1.7 1.7v5.5h-5V271c0-.9-.8-1.7-1.7-1.7h-2.6c-.9 0-1.7.8-1.7 1.7v3.3c-.3-.4-.8-.7-1.4-.7h-2.1v-1.3c0-.9-.8-1.7-1.7-1.7h-1.6c-.7 0-1.4.5-1.6 1.2l-.7 2.1-1.3.7c-.1 0-.1.1-.1.1-.1-.3-.3-.5-.5-.7.4-.4.8-1.1.8-2.2 0-1.3-.6-2.1-1.1-2.5-1.2-.9-3-.9-4.2 0-.5.4-1.1 1.1-1.1 2.5 0 1.1.4 1.8.8 2.2-.4.3-.6.8-.6 1.3v13.2c0 .9.8 1.7 1.7 1.7h2.6c.9 0 1.7-.8 1.7-1.7v-9.7c.2.1.5.2.8.2h.1v5.6c0 1.4.2 2.5.8 3.4.5.9 1.3 1.6 2.3 2 .8.3 1.7.5 2.6.5.6 0 1.2-.1 1.7-.2.6-.1 1.1-.3 1.5-.4.3-.1.5-.3.7-.6.3.6.8 1 1.5 1h2.6c.9 0 1.7-.8 1.7-1.7v-6.3h5v6.3c0 .9.8 1.7 1.7 1.7h2.6c.9 0 1.7-.8 1.7-1.7V271c.1-1-.7-1.7-1.6-1.7zm-15.6 15.5c-.5-.3-1-.4-1.6-.2-.1 0-.3.1-.6.1s-.5.1-.8.1h-.2s-.1-.1-.1-.4v-5.5h2.1c.6 0 1.1-.3 1.4-.7v6.9c0-.1-.1-.2-.2-.3zM160 273.6h-2.6c-.9 0-1.7.8-1.7 1.7v6.7c0 1.4-.3 2.1-.5 2.5-.2.4-.9.4-1.4.4-.6 0-1 0-1-1.4v-8.2c0-.9-.8-1.7-1.7-1.7h-2.6c-.9 0-1.7.8-1.7 1.7v8.6c0 2.1.6 3.8 1.7 4.9 1.1 1.1 2.7 1.6 4.7 1.6 1.1 0 2.1-.2 3-.6.1-.1.2-.1.4-.2.3.3.7.5 1.2.5h2.1c.9 0 1.7-.8 1.7-1.7v-13.2c.1-.9-.7-1.6-1.6-1.6zM170.6 273.3c-.8 0-1.6.1-2.3.3v-3.8c0-.9-.8-1.7-1.7-1.7H164c-.9 0-1.7.8-1.7 1.7v18.5c0 .9.8 1.7 1.7 1.7h1.9c.5 0 .9-.2 1.3-.6h.1c.9.5 2 .8 3.3.8 2.1 0 3.8-.8 5.1-2.3 1.2-1.5 1.9-3.5 1.9-6.2 0-2.6-.6-4.7-1.9-6.2-1.3-1.4-3.1-2.2-5.1-2.2zm.9 8.5c0 1.5-.3 2.2-.5 2.6-.2.3-.4.5-1 .5-.5 0-1.1-.1-1.3-.4-.2-.4-.5-1.1-.5-2.6v-.2c0-1.6.3-2.2.5-2.5.2-.3.9-.4 1.2-.4.6 0 1.6 0 1.6 3zM250.9 273.3c-1.1 0-2.1.2-3 .6-.1.1-.2.1-.3.2-.3-.3-.8-.5-1.2-.5h-2c-.9 0-1.7.8-1.7 1.7v5.1c-.1-1.1-.4-2.1-.9-3-.7-1.3-1.6-2.3-2.8-3-1.2-.7-2.5-1-4-1-2.4 0-4.3.8-5.8 2.3-1.2 1.2-1.8 2.9-2 4.9v-5.3c0-.5-.2-1-.6-1.3.4-.4.8-1.1.8-2.2 0-1.3-.6-2.1-1.1-2.5-1.2-.9-3-.9-4.2 0-.5.4-1.1 1.1-1.1 2.5 0 1.1.4 1.8.8 2.2-.1.1-.2.2-.3.4-.3-.4-.8-.7-1.4-.7H218v-1.3c0-.9-.8-1.7-1.7-1.7h-1.6c-.7 0-1.4.5-1.6 1.2l-.7 2.1-.9.4c-.1 0-.1-.1-.2-.1-.5-.2-1.2-.4-1.9-.6-.8-.2-1.6-.3-2.5-.3-1.5 0-2.8.3-4 .9-1.3.6-2.2 1.6-2.9 2.9-.7 1.3-1 2.8-1 4.7v.7l-4.6-12.3c-.2-.7-.9-1.1-1.6-1.1h-2.7c-.7 0-1.3.4-1.6 1.1l-6.6 17.5c-.2.5-.1 1.1.2 1.6.3.5.8.7 1.4.7h2.7c.7 0 1.3-.4 1.6-1.1l1.4-3.9h4.4l1.4 3.9c.2.7.9 1.1 1.6 1.1h2.8c.6 0 1.1-.3 1.4-.7.3-.4.3-.8.3-1.3 0 0 .1.1.1.2 1.4 1.4 3.3 2.1 5.6 2.1.9 0 1.7-.1 2.4-.2.7-.2 1.4-.4 2-.8.5-.3.8-.9.8-1.5v-2.2c0-.6-.3-1.1-.8-1.4-.5-.3-1.1-.3-1.7 0-.4.2-.8.4-1.2.5-.4.1-.9.2-1.5.2-.8 0-1.1-.3-1.2-.5-.4-.5-.5-1.3-.5-2.4 0-3 1.1-3 1.9-3 .3 0 .7 0 1 .1.5.1.9.2 1.3.4s.9.2 1.3 0c.3-.1.5-.3.7-.6.2.1.4.1.6.1h.1v5.6c0 1.4.2 2.5.8 3.4.5.9 1.3 1.6 2.3 2 .8.3 1.7.5 2.6.5.6 0 1.2-.1 1.7-.2.6-.1 1.1-.3 1.5-.4.2-.1.4-.2.5-.4.3.5.8.8 1.4.8h2.6c.9 0 1.7-.8 1.7-1.7v-5.3c.1 1.2.4 2.2.9 3.2.7 1.3 1.6 2.3 2.8 3 1.2.7 2.5 1 4 1 2.4 0 4.3-.8 5.8-2.3 1.1-1.2 1.8-2.8 2-4.7v5.1c0 .9.8 1.7 1.7 1.7h2.6c.9 0 1.7-.8 1.7-1.7v-6.6c0-1.5.3-2.2.5-2.5.2-.3.9-.4 1.4-.4.6 0 1 0 1 1.4v8.2c0 .9.8 1.7 1.7 1.7h2.6c.9 0 1.7-.8 1.7-1.7v-8.6c0-2.2-.6-3.8-1.8-4.9-1.2-1.4-2.8-2-4.8-2zm-59.2 6.1h-.4l.2-.6.2.6zm27.8 5.3c-.1 0-.3.1-.6.1s-.5.1-.8.1h-.2s-.1-.1-.1-.4V279h2.1c.4 0 .8-.2 1.1-.4v6.3c-.4-.4-1-.4-1.5-.2zm14-5.4c.1-.1.3-.5 1.3-.5s1.2.3 1.3.5c.4.5.5 1.4.5 2.5s-.2 2-.6 2.5c-.1.2-.3.5-1.3.5s-1.2-.4-1.3-.5c-.4-.5-.6-1.4-.6-2.5.2-1.1.4-2 .7-2.5zM60.3 213.7h-7.7c-.9 0-1.7.8-1.7 1.7v30.7c0 .9.8 1.7 1.7 1.7h7.7c.9 0 1.7-.8 1.7-1.7v-30.7c-.1-.9-.8-1.7-1.7-1.7zM75.3 218.2c0-2.5-1.1-3.7-2.1-4.2-1.1-.6-2.3-.9-3.7-.9-1.4 0-2.7.3-3.7.9-.9.5-2 1.7-2 4.2 0 2.1.8 3.3 1.7 3.9-.8.1-1.5.8-1.5 1.7v22.3c0 .9.8 1.7 1.7 1.7h7.7c.9 0 1.7-.8 1.7-1.7v-22.3c0-.8-.6-1.5-1.4-1.7.7-.6 1.6-1.8 1.6-3.9zM102.2 246.1v-14.5c0-3.4-.9-5.9-2.7-7.5-1.8-1.6-4-2.4-6.8-2.4-1.8 0-3.4.4-4.8 1.1-.6.3-1.1.6-1.5 1l-.2-.6c-.2-.7-.9-1.1-1.6-1.1h-5.8c-.9 0-1.7.8-1.7 1.7v22.3c0 .9.8 1.7 1.7 1.7h7.7c.9 0 1.7-.8 1.7-1.7v-9.8c0-2.5.3-3.8.6-4.5.2-.4.4-.7 1.4-.7.4 0 .5.1.6.3.2.3.4 1 .4 2.5v12.2c0 .9.8 1.7 1.7 1.7h7.7c.8-.1 1.6-.8 1.6-1.7zM104.1 231.2h1v7.5c0 2.3.4 4.1 1.1 5.5.8 1.5 1.9 2.5 3.4 3.1 1.3.5 2.8.8 4.5.8 1.6 0 2.9-.1 4-.4 1-.3 2-.6 2.9-1 .6-.3 1-.9 1-1.6v-5.3c.1 0 .3.1.4.1h11.1c.6 0 1.1-.3 1.4-.8.3 1 .6 1.9 1.1 2.7 1.1 2 2.7 3.6 4.6 4.6 1.9 1 4.1 1.6 6.5 1.6 3.9 0 7.1-1.2 9.4-3.5 2.3-2.3 3.5-5.6 3.5-9.8 0-2.8-.6-5.1-1.6-7.1-1.1-2-2.7-3.5-4.6-4.6-1.9-1-4.1-1.5-6.5-1.5-3.9 0-7.1 1.2-9.4 3.5-1.5 1.6-2.6 3.5-3.1 5.9-.3-.3-.8-.6-1.3-.6h-11.1c-.9 0-1.7.8-1.7 1.7v5.8c-.3-.1-.7-.1-1 0-.6.2-1.1.4-1.7.5-.4.1-.9.2-1.5.2h-.4c0-.1-.1-.2-.1-.5v-7h3.8c.9 0 1.7-.8 1.7-1.7v-5.8c0-.9-.8-1.7-1.7-1.7H116V219c0-.9-.8-1.7-1.7-1.7h-5c-.7 0-1.3.4-1.6 1l-1.8 4.2-3 2.1c-.4.3-.7.8-.7 1.4v3.1c.3 1.3 1 2.1 1.9 2.1zm41.6 3.6c0-2 .3-3 .6-3.5.2-.4.4-.6 1-.6.7 0 .9.3 1.1.5.3.5.6 1.5.6 3.5s-.3 3.1-.6 3.6c-.2.4-.4.6-1 .6-.7 0-.9-.2-1.1-.6-.3-.4-.6-1.4-.6-3.5zM184.9 241.9c.8-1.9 1.2-4.3 1.2-7 0-4-.8-7.2-2.4-9.5-1.7-2.4-4.1-3.7-7.2-3.7-1.9 0-3.5.4-4.7 1.3-.3.2-.6.5-.9.7l-.2-.5c-.3-.6-.9-1.1-1.6-1.1h-6.3c-.9 0-1.7.8-1.7 1.7v32c0 .9.8 1.7 1.7 1.7h7.7c.9 0 1.7-.8 1.7-1.7V247.4c1.1.5 2.4.8 4 .8 1.9 0 3.6-.5 5.2-1.6 1.5-1.1 2.7-2.7 3.5-4.7zm-10-7.1c0 2.2-.3 3-.5 3.4-.2.3-.4.4-.7.4-.7 0-.8-.2-.9-.4-.2-.5-.5-1.5-.5-3.3v-.5c.1-1.7.3-2.5.5-2.9.1-.1.2-.3.8-.3.4 0 .6.1.8.4.2.1.5.9.5 3.2zM192.9 246.8c2 .9 4.2 1.3 6.7 1.3 2 0 3.8-.1 5.2-.4 1.4-.3 2.8-.8 4-1.4.6-.3.9-.9.9-1.5v-5.5c0-.2 0-.4-.1-.6.9-.1 1.6-.8 1.6-1.7v-3.4c0-3.9-1.1-6.9-3.4-8.9-2.2-2-5.2-3-8.8-3-2.4 0-4.6.5-6.5 1.4-2 1-3.5 2.5-4.6 4.5-1.1 2-1.6 4.5-1.6 7.4 0 2.9.6 5.4 1.8 7.4 1 2 2.7 3.5 4.8 4.4zm5.4-16.3c.2-.1.5-.2.8-.2.4 0 .7.1.9.2h-1.7zm5.7 8.4c-1 .2-2.2.4-3.5.4-1.1 0-1.9-.2-2.4-.6h6.8c-.3.1-.6.2-.9.2zM213.8 247.7h7.7c.9 0 1.7-.8 1.7-1.7v-9.8c0-2.5.3-3.8.6-4.5.2-.4.4-.7 1.4-.7.4 0 .5.1.6.3.2.3.4 1 .4 2.5V246c0 .9.8 1.7 1.7 1.7h7.7c.9 0 1.7-.8 1.7-1.7v-14.5c0-3.4-.9-5.9-2.7-7.5-1.8-1.6-4-2.4-6.8-2.4-1.8 0-3.4.4-4.8 1.1-.6.3-1.1.6-1.5 1l-.2-.6c-.2-.7-.9-1.1-1.6-1.1h-5.8c-.9 0-1.7.8-1.7 1.7V246c-.1 1 .6 1.7 1.6 1.7zM259.4 224.2c-1.9-1.7-4.5-2.5-7.7-2.5-2.1 0-4.1.2-5.8.5-1.8.4-3.4.9-4.8 1.7-.8.4-1.1 1.4-.8 2.2l2.2 5.1c.1.2.2.3.3.5-.6.3-1.2.6-1.7 1-2.1 1.5-3.2 3.7-3.2 6.7 0 2.9.8 5.2 2.5 6.7 1.6 1.5 3.6 2.2 6 2.2 1.4 0 2.6-.1 3.6-.4 1.1-.3 2-.7 2.9-1.4.2-.1.4-.3.6-.5l.5.9c.3.6.9.9 1.5.9h5.3c.9 0 1.7-.8 1.7-1.7v-14.7c-.1-3.1-1.1-5.5-3.1-7.2zm-10.1 14.1c.1-.1.5-.3 2-.4 0 .5-.1.8-.4 1-.3.3-.8.5-1.3.5-.1 0-.4 0-.5-.1 0 0-.1-.1-.1-.4.1-.5.2-.6.3-.6zM279.6 221.7c-1.9 0-3.5.4-4.7 1.3-.3.2-.6.5-.9.7l-.2-.5c-.3-.6-.9-1.1-1.6-1.1H266c-.9 0-1.7.8-1.7 1.7v32c0 .9.8 1.7 1.7 1.7h7.7c.9 0 1.7-.8 1.7-1.7V247.4c1.1.5 2.4.8 4 .8 1.9 0 3.6-.5 5.2-1.6 1.5-1.1 2.7-2.6 3.5-4.6.8-1.9 1.2-4.3 1.2-7 0-4-.8-7.2-2.4-9.5-1.8-2.6-4.3-3.8-7.3-3.8zm-1.6 13.1c0 2.2-.3 3-.5 3.4-.2.3-.4.4-.7.4-.7 0-.8-.2-.9-.4-.2-.5-.5-1.5-.5-3.3v-.5c.1-1.7.3-2.5.5-2.9.1-.1.2-.3.8-.3.4 0 .6.1.8.4.1.1.5.9.5 3.2zM299.9 222.1c.8-.6 1.7-1.8 1.7-3.9 0-2.5-1.1-3.7-2.1-4.2-1.1-.6-2.3-.9-3.7-.9-1.4 0-2.7.3-3.7.9-.9.5-2 1.7-2 4.2 0 2.1.8 3.3 1.7 3.9-.8.1-1.5.8-1.5 1.7v22.3c0 .9.8 1.7 1.7 1.7h7.7c.9 0 1.7-.8 1.7-1.7v-22.3c-.1-.9-.7-1.6-1.5-1.7z"/><path class="st1" d="M104.2 279h6.3v8.7c-.9.3-1.9.5-2.8.7-1 .2-2.1.2-3.3.2-2.7 0-4.7-.8-6.1-2.4-1.4-1.6-2.1-3.8-2.1-6.6 0-1.8.4-3.4 1.1-4.7s1.7-2.4 3.1-3.1c1.4-.7 3-1.1 4.9-1.1 1 0 1.9.1 2.8.3.9.2 1.7.4 2.4.8l-1 2.2c-.6-.3-1.3-.5-2-.7-.7-.2-1.5-.3-2.3-.3-1.9 0-3.5.6-4.6 1.8-1.1 1.2-1.7 2.8-1.7 4.9 0 1.3.2 2.5.6 3.5.4 1 1 1.8 1.9 2.4.9.6 2 .9 3.4.9.7 0 1.3 0 1.8-.1s.9-.2 1.3-.3v-4.7h-3.7V279zM115.7 270.2c.4 0 .7.1 1 .3.3.2.4.6.4 1.1 0 .5-.1.9-.4 1.1-.3.2-.6.4-1 .4s-.8-.1-1.1-.4c-.3-.2-.4-.6-.4-1.1 0-.5.1-.9.4-1.1.4-.1.7-.3 1.1-.3zm1.3 5v13.2h-2.6v-13.2h2.6zM125.8 286.5c.3 0 .7 0 1-.1.4-.1.7-.1.9-.2v2c-.3.1-.7.2-1.1.3-.5.1-.9.1-1.4.1-.7 0-1.4-.1-2-.4-.6-.2-1.1-.7-1.4-1.3-.4-.6-.5-1.4-.5-2.5v-7.3h-1.8V276l1.9-1 .9-2.8h1.6v3h3.8v2h-3.8v7.2c0 .7.2 1.2.5 1.6.4.4.8.5 1.4.5zM144.3 288.4h-2.6v-8h-8.3v8h-2.6V271h2.6v7.2h8.3V271h2.6v17.4zM160 275.2v13.2h-2.1l-.4-1.7h-.1c-.4.7-1 1.2-1.8 1.5-.7.3-1.5.5-2.4.5-1.5 0-2.7-.4-3.5-1.1s-1.2-2-1.2-3.6v-8.6h2.6v8.2c0 2 .9 3.1 2.7 3.1 1.4 0 2.3-.4 2.8-1.2.5-.8.8-1.9.8-3.4v-6.7h2.6zM166.6 274.3v1.5c0 .5-.1.9-.1 1.1h.1c.4-.6.9-1 1.5-1.4.6-.4 1.5-.6 2.5-.6 1.6 0 2.9.6 3.8 1.7 1 1.1 1.5 2.8 1.5 5.1s-.5 4-1.5 5.1-2.3 1.7-3.8 1.7c-1 0-1.9-.2-2.5-.5-.6-.4-1.1-.8-1.5-1.3h-.2l-.5 1.6H164v-18.5h2.6v4.5zm3.4 2.8c-1.3 0-2.1.4-2.6 1.1-.5.7-.7 1.9-.7 3.4v.2c0 1.5.2 2.7.7 3.5.5.8 1.4 1.2 2.7 1.2 1 0 1.8-.4 2.4-1.2.5-.8.8-2 .8-3.5-.1-3.1-1.2-4.7-3.3-4.7zM196.7 288.4l-1.9-5h-6.7l-1.9 5h-2.7l6.6-17.5h2.7l6.6 17.5h-2.7zm-4.4-12.2c0-.2-.1-.4-.3-.8-.1-.4-.2-.7-.4-1.1s-.2-.7-.3-1c-.1.5-.3 1-.4 1.6-.2.6-.3 1-.4 1.3l-1.8 4.9h5.2l-1.6-4.9zM206.8 288.6c-1.8 0-3.3-.5-4.4-1.6-1.1-1.1-1.7-2.8-1.7-5.1 0-1.6.3-2.9.8-4 .5-1 1.3-1.8 2.2-2.2.9-.5 2-.7 3.2-.7.7 0 1.4.1 2.1.2.6.2 1.2.3 1.6.5l-.8 2.1c-.5-.2-.9-.3-1.5-.5-.5-.1-1-.2-1.5-.2-2.4 0-3.6 1.6-3.6 4.7 0 1.5.3 2.6.9 3.4.6.8 1.4 1.2 2.6 1.2.7 0 1.4-.1 1.9-.2.6-.2 1.1-.4 1.5-.6v2.2c-.5.3-1 .5-1.5.6-.4.2-1 .2-1.8.2zM218.2 286.5c.3 0 .7 0 1-.1.4-.1.7-.1.9-.2v2c-.3.1-.7.2-1.1.3-.5.1-.9.1-1.4.1-.7 0-1.4-.1-2-.4-.6-.2-1.1-.7-1.4-1.3-.4-.6-.5-1.4-.5-2.5v-7.3h-1.8V276l1.9-1 .9-2.8h1.6v3h3.8v2h-3.8v7.2c0 .7.2 1.2.5 1.6.3.4.8.5 1.4.5zM224.1 270.2c.4 0 .7.1 1 .3.3.2.4.6.4 1.1 0 .5-.1.9-.4 1.1-.3.2-.6.4-1 .4s-.8-.1-1.1-.4c-.3-.2-.4-.6-.4-1.1 0-.5.1-.9.4-1.1.3-.1.7-.3 1.1-.3zm1.2 5v13.2h-2.6v-13.2h2.6zM241 281.8c0 2.2-.6 3.9-1.7 5.1-1.1 1.2-2.6 1.8-4.5 1.8-1.2 0-2.2-.3-3.2-.8-.9-.5-1.6-1.3-2.2-2.3-.5-1-.8-2.2-.8-3.7 0-2.2.6-3.9 1.7-5 1.1-1.2 2.6-1.8 4.5-1.8 1.2 0 2.3.3 3.2.8.9.5 1.6 1.3 2.2 2.3.5.9.8 2.1.8 3.6zm-9.7 0c0 1.5.3 2.6.8 3.5.6.8 1.5 1.2 2.7 1.2 1.2 0 2.1-.4 2.7-1.2.6-.8.8-2 .8-3.5s-.3-2.6-.9-3.5-1.5-1.2-2.7-1.2c-1.2 0-2.1.4-2.7 1.2-.4.9-.7 2-.7 3.5zM250.9 275c1.5 0 2.7.4 3.5 1.1.8.8 1.2 2 1.2 3.7v8.6H253v-8.2c0-2-.9-3.1-2.7-3.1-1.4 0-2.3.4-2.8 1.2-.5.8-.8 1.9-.8 3.4v6.6h-2.6v-13.2h2l.4 1.8h.1c.4-.7 1-1.2 1.7-1.5 1-.2 1.8-.4 2.6-.4z"/><path class="st2" d="M60.3 246.1h-7.7v-30.7h7.7v30.7zM69.5 214.7c1.1 0 2.1.2 2.9.7.8.5 1.2 1.4 1.2 2.7 0 1.3-.4 2.2-1.2 2.7-.8.5-1.8.7-2.9.7-1.1 0-2.1-.2-2.9-.7-.8-.5-1.2-1.4-1.2-2.7 0-1.4.4-2.3 1.2-2.7.8-.4 1.8-.7 2.9-.7zm3.8 9V246h-7.7v-22.3h7.7zM92.7 223.3c2.3 0 4.2.6 5.7 1.9 1.5 1.3 2.2 3.4 2.2 6.3V246h-7.7v-12.2c0-1.5-.2-2.6-.6-3.4-.4-.8-1.1-1.1-2.1-1.1-1.5 0-2.4.6-2.9 1.8-.5 1.2-.7 2.9-.7 5.1v9.8h-7.7v-22.3h5.8l1 2.9h.3c.7-1 1.6-1.9 2.8-2.5 1-.5 2.3-.8 3.9-.8zM116.7 240.4c.7 0 1.3-.1 1.9-.2.6-.1 1.2-.3 1.8-.5v5.6c-.8.4-1.7.6-2.7.9-.9.2-2.1.4-3.6.4s-2.7-.2-3.8-.7c-1.1-.5-1.9-1.2-2.6-2.4-.6-1.1-.9-2.7-.9-4.7v-9.2h-2.7v-3.1l3.4-2.4 2-4.7h5v4.5h5.5v5.8h-5.5v8.7c.1 1.2.8 2 2.2 2zM122.5 238.3v-6.1h11.1v6.1h-11.1zM158.5 234.8c0 3.7-1 6.6-3 8.6s-4.7 3-8.2 3c-2.2 0-4.1-.5-5.7-1.4-1.7-.9-3-2.2-3.9-4-1-1.7-1.4-3.8-1.4-6.3 0-3.7 1-6.5 3-8.5s4.7-3 8.2-3c2.2 0 4.1.4 5.7 1.3 1.7.9 3 2.2 3.9 3.9.9 1.9 1.4 4 1.4 6.4zm-14.5 0c0 1.9.3 3.4.8 4.4.5 1 1.4 1.5 2.6 1.5 1.2 0 2-.5 2.5-1.5s.7-2.5.7-4.4c0-1.9-.2-3.3-.7-4.3-.5-1-1.4-1.5-2.6-1.5-1.2 0-2 .5-2.5 1.5s-.8 2.4-.8 4.3zM176.5 223.3c2.5 0 4.4 1 5.8 3 1.4 2 2.1 4.8 2.1 8.5 0 2.5-.4 4.7-1.1 6.4-.7 1.7-1.7 3-2.9 3.9-1.2.9-2.6 1.3-4.2 1.3s-2.8-.3-3.7-.8c-.9-.6-1.6-1.1-2-1.7h-.2c.1.5.1 1.1.2 1.7.1.6.1 1.3.1 2.1v8.2h-7.7v-32h6.3l1.1 2.8h.4c.5-.9 1.3-1.6 2.2-2.3.8-.7 2.1-1.1 3.6-1.1zm-2.9 6.1c-1.1 0-1.9.4-2.3 1.2-.4.8-.7 2-.7 3.6v.6c0 1.8.2 3.1.6 4.1.4.9 1.2 1.4 2.4 1.4 1 0 1.7-.4 2.2-1.3.5-.8.7-2.3.7-4.2s-.3-3.4-.8-4.2c-.4-.8-1.1-1.2-2.1-1.2zM198.9 223.3c3.3 0 5.8.8 7.7 2.5 1.9 1.7 2.8 4.3 2.8 7.7v3.4h-13.8c.1 1.2.5 2.1 1.3 2.9.8.8 2 1.1 3.6 1.1 1.4 0 2.7-.1 3.8-.4 1.2-.3 2.4-.7 3.6-1.3v5.5c-1.1.6-2.3 1-3.5 1.3-1.3.3-2.9.4-4.8.4-2.3 0-4.3-.4-6-1.2-1.8-.8-3.2-2-4.2-3.7-1-1.7-1.5-3.9-1.5-6.5 0-2.7.5-4.9 1.4-6.6.9-1.7 2.2-3 3.9-3.8 1.6-.8 3.5-1.3 5.7-1.3zm.3 5.3c-.9 0-1.7.3-2.3.8-.6.6-1 1.5-1.1 2.7h6.6c0-1-.3-1.8-.9-2.5-.5-.7-1.3-1-2.3-1zM227.7 223.3c2.3 0 4.2.6 5.7 1.9 1.5 1.3 2.2 3.4 2.2 6.3V246h-7.7v-12.2c0-1.5-.2-2.6-.6-3.4-.4-.8-1.1-1.1-2.1-1.1-1.5 0-2.4.6-2.9 1.8-.5 1.2-.7 2.9-.7 5.1v9.8h-7.7v-22.3h5.8l1 2.9h.3c.7-1 1.6-1.9 2.8-2.5 1-.5 2.4-.8 3.9-.8zM251.7 223.3c2.8 0 5 .7 6.6 2.1 1.6 1.4 2.4 3.4 2.4 6v14.7h-5.3l-1.5-2.9h-.2c-.6.8-1.3 1.4-1.9 1.9-.7.5-1.4.9-2.3 1.1-.9.2-1.9.3-3.1.3-1.9 0-3.6-.6-4.8-1.8-1.3-1.2-1.9-3-1.9-5.4 0-2.4.8-4.2 2.5-5.3 1.7-1.2 4.1-1.8 7.2-1.9l3.7-.1v-.3c0-1-.2-1.7-.7-2.1-.5-.4-1.1-.6-2-.6-.9 0-1.9.2-2.9.5-1.1.3-2.2.7-3.3 1.2l-2.2-5.1c1.3-.7 2.8-1.2 4.4-1.5 1.5-.6 3.3-.8 5.3-.8zm-.4 12.9c-1.4.1-2.4.3-3 .7-.6.4-.9 1.1-.9 1.9 0 .8.2 1.3.6 1.7s.9.5 1.6.5c.9 0 1.7-.3 2.4-.9.7-.6 1-1.4 1-2.3v-1.7l-1.7.1zM279.6 223.3c2.5 0 4.4 1 5.8 3 1.4 2 2.1 4.8 2.1 8.5 0 2.5-.4 4.7-1.1 6.4-.7 1.7-1.7 3-2.9 3.9-1.2.9-2.6 1.3-4.2 1.3s-2.8-.3-3.7-.8c-.9-.6-1.6-1.1-2-1.7h-.2c.1.5.1 1.1.2 1.7.1.6.1 1.3.1 2.1v8.2H266v-32h6.3l1.1 2.8h.4c.5-.9 1.3-1.6 2.2-2.3.8-.7 2-1.1 3.6-1.1zm-2.9 6.1c-1.1 0-1.9.4-2.3 1.2-.4.8-.7 2-.7 3.6v.6c0 1.8.2 3.1.6 4.1.4.9 1.2 1.4 2.4 1.4 1 0 1.7-.4 2.2-1.3.5-.8.7-2.3.7-4.2s-.3-3.4-.8-4.2c-.4-.8-1.1-1.2-2.1-1.2zM295.8 214.7c1.1 0 2.1.2 2.9.7.8.5 1.2 1.4 1.2 2.7 0 1.3-.4 2.2-1.2 2.7-.8.5-1.8.7-2.9.7-1.1 0-2.1-.2-2.9-.7-.8-.5-1.2-1.4-1.2-2.7 0-1.4.4-2.3 1.2-2.7.8-.4 1.8-.7 2.9-.7zm3.9 9V246H292v-22.3h7.7z"/><path d="M234.1 77.3v82.9c0 10.2-8.2 18.4-18.4 18.4h-79.2c-10.2 0-18.4-8.2-18.4-18.4v-106c0-10.2 8.2-18.4 18.4-18.4h55.7c3.9 0 7.6 1.5 10.4 4.3l27.5 27.5c2.5 2.6 4 6.1 4 9.7z" style="fill:#ffcf65"/><path d="M234.1 77.3v1.9h-24.7c-10.2 0-18.4-8.2-18.4-18.4V35.9h1.3c3.9 0 7.6 1.5 10.4 4.3l27.5 27.5c2.4 2.5 3.9 6 3.9 9.6z" style="fill:#ffa102"/><path class="st0" d="M197.4 103.3H170c-2.5 0-4.5-2-4.5-4.5s2-4.5 4.5-4.5h27.4c2.5 0 4.5 2 4.5 4.5 0 2.4-2 4.5-4.5 4.5zM208 126.3h-38c-2.5 0-4.5-2-4.5-4.5s2-4.5 4.5-4.5h38c2.5 0 4.5 2 4.5 4.5s-2 4.5-4.5 4.5zM197.4 149.4H170c-2.5 0-4.5-2-4.5-4.5s2-4.5 4.5-4.5h27.4c2.5 0 4.5 2 4.5 4.5s-2 4.5-4.5 4.5z"/><path class="st5" d="m157 90.3-9.4 9.4-4.6-4.6-3.4 3.4 7.9 8 12.7-12.8-3.2-3.4zM157.7 136.6l-9.4 9.4-4.6-4.6-3.4 3.4 7.9 8 12.7-12.8-3.2-3.4z"/><path d="m155.3 130.3-5.6-5.6-5.6 5.6-3.3-3.3 5.6-5.6-5.6-5.6 3.3-3.3 5.6 5.6 5.6-5.6 3.3 3.3-5.6 5.6 5.6 5.6-3.3 3.3z" style="fill:red"/></svg>
